<svg width="226" height="30" viewBox="0 0 226 30" version="1" xmlns="http://www.w3.org/2000/svg"><path fill="#FFF" d="M6.987 13.173l-3.494 3.494L0 13.172 3.493 9.68zM222.113 13.183l-3.493 3.494-3.495-3.495 3.493-3.493z"/><g fill="#636466"><path d="M28.602 13.297h1.273V8.21h2.002V6.935h-3.275M37.705 14.23V6.48c0-1.097-.653-2.032-1.567-2.487.182.37.293.777.293 1.214v7.753c0 .865-.374 1.62-1.015 2.146.564.602 1.016 1.28 1.016 2.26v8.618c0 1.506-1.278 2.786-2.784 2.786H25.36v1.273h9.56c1.505 0 2.785-1.28 2.785-2.786v-8.62c0-.978-.45-1.655-1.016-2.258.638-.526 1.015-1.28 1.015-2.145z"/><path d="M28.602 24.212h1.273v-5.125h2.002v-1.274h-3.275"/></g><g fill="#636466"><path d="M48.778 24.212h1.273V8.21h2.003V6.935h-3.275"/><path d="M56.313 3.99c.183.37.294.777.294 1.214V25.98c0 1.506-1.28 2.786-2.785 2.786h-6.774c-.438 0-.847-.112-1.215-.295.455.917 1.39 1.57 2.487 1.57h6.775c1.505 0 2.785-1.28 2.785-2.786V6.478c0-1.097-.652-2.032-1.567-2.487z"/></g><g fill="#636466"><path d="M68.953 13.297h1.274V8.21h2V6.935h-3.274M76.438 18.823c.978-.45 1.58-1.43 1.58-2.484V6.477c0-1.11-.647-2.056-1.568-2.504.183.372.295.786.295 1.23v9.862c0 1.054-.603 2.033-1.58 2.484l1.88 11.217H73.59l.214 1.273h4.517l-1.882-11.217zM70.685 17.813h-1.732v10.954H65.71v1.273h4.517V19.087h.672"/></g><g fill="#636466"><path d="M88.527 24.212H89.8V8.21h2.003V6.935h-3.276"/><path d="M96.063 3.99c.182.37.293.777.293 1.214V25.98c0 1.506-1.28 2.786-2.785 2.786h-6.775c-.437 0-.846-.112-1.213-.294.454.915 1.39 1.567 2.486 1.567h6.775c1.505 0 2.785-1.28 2.785-2.786V6.478c.002-1.097-.65-2.032-1.565-2.487z"/></g><g fill="#636466"><path d="M108.703 24.212h1.273V8.21h2.002V6.935h-3.275"/><path d="M116.24 3.99c.18.37.292.777.292 1.214V25.98c0 1.506-1.28 2.786-2.785 2.786h-8.288v1.273h9.56c1.505 0 2.784-1.28 2.784-2.786V6.478c0-1.097-.65-2.032-1.565-2.487z"/></g><path fill="#636466" d="M129.105 3.693v25.074h-3.244v1.273h4.518V3.693"/><g fill="#636466"><path d="M149.205 3.693v25.074h-3.61l.366 1.273h4.518V3.693M141.375 17.25v11.517h-3.242v1.273h4.515v-8.364"/></g><g fill="#636466"><path d="M161.094 19.087h3.732v-1.273h-5.006c-.44 0-.853-.11-1.222-.29.453.923 1.392 1.563 2.496 1.563zM162.823 20.78l-1.27.297v3.135h1.27M169.086 3.99c.183.37.294.777.294 1.214v5.345l-3.28.758v1.568l4.554-1.054V6.478c0-1.097-.653-2.032-1.568-2.487z"/><path d="M169.086 14.87c.183.367.294.775.294 1.212v9.9c0 1.504-1.28 2.784-2.785 2.784h-6.774c-.437 0-.846-.112-1.214-.295.454.917 1.39 1.57 2.488 1.57h6.774c1.506 0 2.785-1.28 2.785-2.786v-9.9c0-1.095-.65-2.03-1.567-2.485zM161.552 6.936v6.36h1.27V8.21h2.004V6.935"/></g><g fill="#636466"><path d="M182.142 17.813h-.414v10.954h-3.245v1.273H183v-9.488M191.394 3.693h-1.682l-3.807 11.862 4.215 13.212h-3.67l.352 1.123.038.15h4.554l-4.215-13.21"/></g><path fill="#636466" d="M202.016 3.693v25.074h-3.244v1.273h4.517V3.693M221.046 19.088l3.493-3.494 1.272 1.273-3.493 3.494zM5.915 19.087l3.494-3.494 1.27 1.273L7.19 20.36z"/><g fill="#FFF"><path d="M34.012 10.54c0 .865-.376 1.618-1.016 2.145.564.602 1.016 1.28 1.016 2.257v8.62c0 1.506-1.28 2.785-2.785 2.785h-9.56V0h9.56c1.505 0 2.785 1.242 2.785 2.786v7.753zm-4.554-6.024h-3.275v6.36h3.275v-6.36zm0 10.88h-3.275v6.397h3.275v-6.398zM51.402 0c1.505 0 2.785 1.242 2.785 2.786v20.776c0 1.506-1.28 2.785-2.785 2.785h-6.775c-1.543 0-2.786-1.28-2.786-2.785V2.786C41.843 1.242 43.085 0 44.628 0h6.775zm-1.77 4.516H46.36v17.277h3.275V4.516zM70.11 26.347l-1.845-10.952h-1.732v10.952h-4.516V0h9.56c1.506 0 2.75 1.242 2.75 2.786v9.86c0 1.055-.604 2.033-1.582 2.485l1.882 11.217H70.11zm-.3-21.83h-3.276v6.36h3.275v-6.36zM91.152 0c1.505 0 2.784 1.242 2.784 2.786v20.776c0 1.506-1.28 2.785-2.784 2.785h-6.775c-1.543 0-2.785-1.28-2.785-2.785V2.786C81.592 1.242 82.834 0 84.377 0h6.775zm-1.77 4.516H86.11v17.277h3.275V4.516zM111.328 0c1.505 0 2.785 1.242 2.785 2.786v20.776c0 1.506-1.28 2.785-2.785 2.785h-9.56V0h9.56zm-1.77 4.516h-3.275v17.277h3.275V4.516zM122.17 0h4.516v26.347h-4.517V0zM146.784 0v26.347h-4.516l-3.312-11.517v11.517h-4.517V0h4.478l3.312 10.803V0h4.554zM164.176 10.877c1.504 0 2.785 1.242 2.785 2.785v9.9c0 1.505-1.28 2.784-2.784 2.784H157.4c-1.544 0-2.785-1.28-2.785-2.785v-5.42l4.516-1.053v4.705h3.276v-6.398H157.4c-1.544 0-2.785-1.243-2.785-2.786V2.786c0-1.543 1.24-2.786 2.785-2.786h6.775c1.504 0 2.785 1.242 2.785 2.786V8.13l-4.555 1.054V4.516h-3.275v6.36h5.046zM183.485 13.136l4.216 13.21h-4.553l-.038-.15-3.39-10.802h-.414v10.952h-4.516V0h4.516v10.877h.34L183.11 0h4.59l-4.215 13.136zM195.08 0h4.516v26.347h-4.516V0z"/></g></svg>